<mxfile host="drawio-plugin" modified="2023-04-28T08:00:07.619Z" agent="5.0 (Windows NT 6.2; Win64; x64) AppleWebKit/537.36 (KHTML, like Gecko) Chrome/104.0.5112.102 Safari/537.36" etag="-_SSQjFVy03MRY71cR2v" version="20.5.3" type="embed"><diagram id="23iRSUPoRavnBvh4doch" name="Page-1"><mxGraphModel dx="1364" dy="540" grid="1" gridSize="10" guides="1" tooltips="1" connect="1" arrows="1" fold="1" page="1" pageScale="1" pageWidth="827" pageHeight="1169" math="0" shadow="0"><root><mxCell id="0"/><mxCell id="1" parent="0"/><mxCell id="3" value="TestMaster.Core&lt;br&gt;&lt;font style=&quot;font-size: 10px;&quot;&gt;&lt;i&gt;JS library to parse and run&lt;br&gt;tests with TestMaster&lt;/i&gt;&lt;/font&gt;" style="html=1;dropTarget=0;" vertex="1" parent="1"><mxGeometry x="111" y="80" width="180" height="90" as="geometry"/></mxCell><mxCell id="4" value="" style="shape=module;jettyWidth=8;jettyHeight=4;" vertex="1" parent="3"><mxGeometry x="1" width="20" height="20" relative="1" as="geometry"><mxPoint x="-27" y="7" as="offset"/></mxGeometry></mxCell><mxCell id="11" style="edgeStyle=orthogonalEdgeStyle;rounded=0;orthogonalLoop=1;jettySize=auto;html=1;entryX=0.5;entryY=1;entryDx=0;entryDy=0;fontSize=10;endArrow=open;endFill=0;" edge="1" parent="1" source="5" target="3"><mxGeometry relative="1" as="geometry"/></mxCell><mxCell id="5" value="TestMaster.Explorer&lt;br&gt;&lt;font style=&quot;font-size: 10px;&quot;&gt;&lt;i&gt;JS library to build SPA&lt;br&gt;applications based on test&lt;br&gt;index and test-case HTML&lt;br&gt;files&lt;/i&gt;&lt;/font&gt;" style="html=1;dropTarget=0;" vertex="1" parent="1"><mxGeometry x="111" y="290" width="180" height="90" as="geometry"/></mxCell><mxCell id="6" value="" style="shape=module;jettyWidth=8;jettyHeight=4;" vertex="1" parent="5"><mxGeometry x="1" width="20" height="20" relative="1" as="geometry"><mxPoint x="-27" y="7" as="offset"/></mxGeometry></mxCell><mxCell id="7" value="TestRunner.Assistant.DotNet&lt;br&gt;&lt;i style=&quot;font-size: 10px;&quot;&gt;a .NET library to expose&lt;br&gt;endpoints from&lt;br&gt;any .NET software&lt;/i&gt;" style="html=1;dropTarget=0;" vertex="1" parent="1"><mxGeometry x="520" y="80" width="220" height="90" as="geometry"/></mxCell><mxCell id="8" value="" style="shape=module;jettyWidth=8;jettyHeight=4;" vertex="1" parent="7"><mxGeometry x="1" width="20" height="20" relative="1" as="geometry"><mxPoint x="-27" y="7" as="offset"/></mxGeometry></mxCell><mxCell id="12" style="edgeStyle=orthogonalEdgeStyle;rounded=0;orthogonalLoop=1;jettySize=auto;html=1;entryX=0.5;entryY=1;entryDx=0;entryDy=0;fontSize=10;endArrow=open;endFill=0;" edge="1" parent="1" source="9" target="7"><mxGeometry relative="1" as="geometry"/></mxCell><mxCell id="9" value="TestRunner.Assistant.DotNet.Wpf&lt;br&gt;&lt;i style=&quot;font-size: 10px;&quot;&gt;a .NET library to write&lt;br&gt;adapters for testing&lt;br&gt;WPF UI&lt;/i&gt;" style="html=1;dropTarget=0;" vertex="1" parent="1"><mxGeometry x="505" y="290" width="250" height="90" as="geometry"/></mxCell><mxCell id="10" value="" style="shape=module;jettyWidth=8;jettyHeight=4;" vertex="1" parent="9"><mxGeometry x="1" width="20" height="20" relative="1" as="geometry"><mxPoint x="-27" y="7" as="offset"/></mxGeometry></mxCell></root></mxGraphModel></diagram></mxfile>